<svg width="54" height="54" viewBox="0 0 54 54" fill="none" xmlns="http://www.w3.org/2000/svg">
<rect width="54" height="54" rx="24" fill="#155998" fill-opacity="0.15"/>
<path d="M27 15C24.6266 15 22.3066 15.7038 20.3332 17.0224C18.3598 18.3409 16.8217 20.2151 15.9135 22.4078C15.0052 24.6005 14.7676 27.0133 15.2306 29.3411C15.6936 31.6689 16.8365 33.807 18.5147 35.4853C20.193 37.1635 22.3311 38.3064 24.6589 38.7694C26.9867 39.2324 29.3995 38.9948 31.5922 38.0865C33.7849 37.1783 35.6591 35.6402 36.9776 33.6668C38.2962 31.6934 39 29.3734 39 27C38.9966 23.8184 37.7313 20.7681 35.4816 18.5184C33.2319 16.2687 30.1816 15.0034 27 15ZM27 37.1538C24.9918 37.1538 23.0286 36.5583 21.3588 35.4426C19.689 34.3269 18.3876 32.7411 17.6191 30.8857C16.8506 29.0303 16.6495 26.9887 17.0413 25.0191C17.4331 23.0494 18.4001 21.2402 19.8202 19.8201C21.2402 18.4001 23.0494 17.433 25.0191 17.0413C26.9887 16.6495 29.0303 16.8505 30.8857 17.6191C32.7411 18.3876 34.3269 19.689 35.4426 21.3588C36.5583 23.0286 37.1538 24.9918 37.1538 27C37.1508 29.692 36.08 32.2729 34.1765 34.1765C32.2729 36.08 29.692 37.1508 27 37.1538ZM31.6154 29.3077C31.6154 30.1645 31.275 30.9863 30.6691 31.5922C30.0632 32.1981 29.2415 32.5385 28.3846 32.5385H27.9231V33.4615C27.9231 33.7064 27.8258 33.9411 27.6527 34.1143C27.4796 34.2874 27.2448 34.3846 27 34.3846C26.7552 34.3846 26.5204 34.2874 26.3473 34.1143C26.1742 33.9411 26.0769 33.7064 26.0769 33.4615V32.5385H24.2308C23.986 32.5385 23.7512 32.4412 23.5781 32.2681C23.4049 32.095 23.3077 31.8602 23.3077 31.6154C23.3077 31.3706 23.4049 31.1358 23.5781 30.9627C23.7512 30.7896 23.986 30.6923 24.2308 30.6923H28.3846C28.7518 30.6923 29.104 30.5464 29.3637 30.2868C29.6234 30.0271 29.7692 29.6749 29.7692 29.3077C29.7692 28.9405 29.6234 28.5883 29.3637 28.3286C29.104 28.069 28.7518 27.9231 28.3846 27.9231H25.6154C24.7585 27.9231 23.9368 27.5827 23.3309 26.9768C22.725 26.3709 22.3846 25.5492 22.3846 24.6923C22.3846 23.8355 22.725 23.0137 23.3309 22.4078C23.9368 21.8019 24.7585 21.4615 25.6154 21.4615H26.0769V20.5385C26.0769 20.2936 26.1742 20.0589 26.3473 19.8857C26.5204 19.7126 26.7552 19.6154 27 19.6154C27.2448 19.6154 27.4796 19.7126 27.6527 19.8857C27.8258 20.0589 27.9231 20.2936 27.9231 20.5385V21.4615H29.7692C30.014 21.4615 30.2488 21.5588 30.4219 21.7319C30.5951 21.905 30.6923 22.1398 30.6923 22.3846C30.6923 22.6294 30.5951 22.8642 30.4219 23.0373C30.2488 23.2104 30.014 23.3077 29.7692 23.3077H25.6154C25.2482 23.3077 24.896 23.4536 24.6363 23.7132C24.3767 23.9729 24.2308 24.3251 24.2308 24.6923C24.2308 25.0595 24.3767 25.4117 24.6363 25.6714C24.896 25.931 25.2482 26.0769 25.6154 26.0769H28.3846C29.2415 26.0769 30.0632 26.4173 30.6691 27.0232C31.275 27.6291 31.6154 28.4508 31.6154 29.3077Z" fill="#1E1E1E"/>
</svg>
