<svg width="32" height="32" viewBox="0 0 32 32" fill="none" xmlns="http://www.w3.org/2000/svg">
<rect width="32" height="32" rx="16" fill="#155998" fill-opacity="0.15"/>
<path d="M21 10.5H11C10.7348 10.5 10.4804 10.6054 10.2929 10.7929C10.1054 10.9804 10 11.2348 10 11.5V15C10 18.295 11.595 20.2919 12.9331 21.3869C14.3744 22.5656 15.8081 22.9656 15.8706 22.9825C15.9566 23.0059 16.0472 23.0059 16.1331 22.9825C16.1956 22.9656 17.6275 22.5656 19.0706 21.3869C20.405 20.2919 22 18.295 22 15V11.5C22 11.2348 21.8946 10.9804 21.7071 10.7929C21.5196 10.6054 21.2652 10.5 21 10.5ZM21 15C21 17.3169 20.1462 19.1975 18.4625 20.5887C17.7295 21.1923 16.896 21.662 16 21.9762C15.1158 21.6675 14.2925 21.2061 13.5675 20.6131C11.8638 19.2194 11 17.3312 11 15V11.5H21V15ZM13.1462 16.8538C13.0524 16.7599 12.9997 16.6327 12.9997 16.5C12.9997 16.3673 13.0524 16.2401 13.1462 16.1462C13.2401 16.0524 13.3673 15.9997 13.5 15.9997C13.6327 15.9997 13.7599 16.0524 13.8538 16.1462L15 17.2931L18.1462 14.1462C18.1927 14.0998 18.2479 14.0629 18.3086 14.0378C18.3692 14.0127 18.4343 13.9997 18.5 13.9997C18.5657 13.9997 18.6308 14.0127 18.6914 14.0378C18.7521 14.0629 18.8073 14.0998 18.8538 14.1462C18.9002 14.1927 18.9371 14.2479 18.9622 14.3086C18.9873 14.3692 19.0003 14.4343 19.0003 14.5C19.0003 14.5657 18.9873 14.6308 18.9622 14.6914C18.9371 14.7521 18.9002 14.8073 18.8538 14.8538L15.3538 18.3538C15.3073 18.4002 15.2522 18.4371 15.1915 18.4623C15.1308 18.4874 15.0657 18.5004 15 18.5004C14.9343 18.5004 14.8692 18.4874 14.8085 18.4623C14.7478 18.4371 14.6927 18.4002 14.6462 18.3538L13.1462 16.8538Z" fill="#1E1E1E"/>
</svg>
