<svg width="54" height="54" viewBox="0 0 54 54" fill="none" xmlns="http://www.w3.org/2000/svg">
<rect width="54" height="54" rx="24" fill="#155998" fill-opacity="0.15"/>
<path d="M33.3333 23.0697V22.5C33.3333 19.935 29.3927 18 24.1667 18C18.9406 18 15 19.935 15 22.5V26.5909C15 28.7274 17.7344 30.4251 21.6667 30.9334V31.5C21.6667 34.065 25.6073 36 30.8333 36C36.0594 36 40 34.065 40 31.5V27.4091C40 25.292 37.3521 23.5923 33.3333 23.0697ZM38.3333 27.4091C38.3333 28.7611 35.126 30.2727 30.8333 30.2727C30.4448 30.2727 30.0594 30.2594 29.6792 30.2349C31.926 29.431 33.3333 28.125 33.3333 26.5909V24.7234C36.4448 25.1785 38.3333 26.414 38.3333 27.4091ZM21.6667 29.2756V26.8425C22.4956 26.9485 23.3307 27.0012 24.1667 27C25.0026 27.0012 25.8377 26.9485 26.6667 26.8425V29.2756C25.839 29.3956 25.0034 29.4554 24.1667 29.4545C23.33 29.4554 22.4944 29.3956 21.6667 29.2756ZM31.6667 25.1519V26.5909C31.6667 27.449 30.374 28.3705 28.3333 28.9299V26.5398C29.6781 26.2197 30.8167 25.7431 31.6667 25.1519ZM24.1667 19.6364C28.4594 19.6364 31.6667 21.148 31.6667 22.5C31.6667 23.852 28.4594 25.3636 24.1667 25.3636C19.874 25.3636 16.6667 23.852 16.6667 22.5C16.6667 21.148 19.874 19.6364 24.1667 19.6364ZM16.6667 26.5909V25.1519C17.5167 25.7431 18.6552 26.2197 20 26.5398V28.9299C17.9594 28.3705 16.6667 27.449 16.6667 26.5909ZM23.3333 31.5V31.0735C23.6073 31.0837 23.8844 31.0909 24.1667 31.0909C24.5708 31.0909 24.9656 31.0776 25.3531 31.0551C25.7836 31.2064 26.2221 31.3348 26.6667 31.4397V33.839C24.626 33.2795 23.3333 32.3581 23.3333 31.5ZM28.3333 34.1847V31.7455C29.162 31.8548 29.9972 31.9095 30.8333 31.9091C31.6693 31.9102 32.5044 31.8576 33.3333 31.7516V34.1847C31.6755 34.4233 29.9911 34.4233 28.3333 34.1847ZM35 33.839V31.4489C36.3448 31.1287 37.4833 30.6522 38.3333 30.061V31.5C38.3333 32.3581 37.0406 33.2795 35 33.839Z" fill="#1E1E1E"/>
</svg>
