<svg width="48" height="48" viewBox="0 0 48 48" fill="none" xmlns="http://www.w3.org/2000/svg">
<g clip-path="url(#clip0_119_237)">
<rect width="47.5493" height="48" rx="23.7746" fill="white"/>
<path d="M7.54931 18.7042L6.05587 19.2473C5.89309 19.3065 5.72715 19.1675 5.75682 18.9969L5.98665 17.6756C5.98928 17.6603 5.99352 17.6453 5.99927 17.6309L6.6479 16L7.07194 15.0597C7.0772 15.0481 7.0834 15.0369 7.09053 15.0264L8.71363 12.6197L9.01711 12.0634C9.03957 12.0222 9.04862 11.9749 9.04298 11.9283L8.97913 11.4018C8.97741 11.3875 8.97433 11.3734 8.96986 11.3597L8.58218 10.1596L7.98124 8.58216L7.77467 7.83099L8.58218 8.13146L10.0282 8.75117L11.4259 9.13236C11.4577 9.14103 11.491 9.14265 11.5235 9.13705L11.968 9.06039C12.0014 9.05465 12.0331 9.04139 12.0607 9.02171L12.6761 8.58216L13.9531 7.83099L15.6057 6.89202L17.4648 6.14084L18.6479 5.80282L18.9838 5.74404C19.1611 5.71301 19.3015 5.89232 19.2287 6.05705L17.7968 9.29957C17.7764 9.34576 17.741 9.38377 17.6964 9.40751L15.3991 10.6291L14.3099 11.3803L13.5211 12.0939L12.5613 12.906C12.5502 12.9155 12.54 12.9259 12.5309 12.9373L11.4179 14.3286L10.0434 16.316C10.0333 16.3306 10.025 16.3464 10.0185 16.363L9.55134 17.5743C9.53185 17.6248 9.49485 17.6666 9.44712 17.6921L7.54931 18.7042Z" fill="#155998"/>
<path d="M29.0177 7.53605L28.4869 6.03817C28.4291 5.87491 28.5694 5.71014 28.7398 5.7412L30.0592 5.98187C30.0745 5.98465 30.0894 5.98901 30.1038 5.99487L31.7293 6.65691L32.666 7.08869C32.6776 7.09402 32.6887 7.10033 32.6992 7.10754L35.0924 8.7504L35.6463 9.05845C35.6873 9.08125 35.7344 9.09068 35.7811 9.08542L36.3081 9.02593C36.3224 9.02431 36.3366 9.02135 36.3503 9.01703L37.5535 8.63922L39.1358 8.05128L39.8888 7.85091L39.5816 8.6559L38.9498 10.0968L38.5574 11.4913C38.5483 11.5231 38.5465 11.5563 38.5517 11.5889L38.625 12.034C38.6302 12.0675 38.6434 12.0992 38.6629 12.127L39.0971 12.746L39.8377 14.0291L40.7632 15.6894L41.499 17.5546L41.8272 18.7405L41.8832 19.0768C41.9128 19.2544 41.7326 19.3933 41.5684 19.3192L38.3376 17.8606C38.2918 17.8398 38.2539 17.8041 38.2306 17.7593L37.0279 15.452L36.2857 14.3567L35.5787 13.5621L34.7744 12.5956C34.7651 12.5844 34.7547 12.5742 34.7434 12.565L33.3613 11.4405L31.3853 10.0497C31.3708 10.0395 31.355 10.031 31.3385 10.0245L30.1311 9.54728C30.0808 9.52741 30.0393 9.49008 30.0142 9.44212L29.0177 7.53605Z" fill="#7EB0DF"/>
<path d="M40.2066 29.0704L42.0845 28.3192L41.6406 30.3615C41.6376 30.3742 41.6338 30.3866 41.6289 30.3986L40.9656 32.0278L40.5341 32.9646C40.5288 32.9762 40.5225 32.9873 40.5153 32.9978L38.8729 35.3913L38.5649 35.9452C38.542 35.9862 38.5326 36.0333 38.5379 36.08L38.5972 36.607C38.5991 36.6213 38.6021 36.6355 38.6062 36.6492L38.9844 37.8524L39.5726 39.4347L39.7728 40.1874L38.9679 39.8806L37.527 39.2492L36.1323 38.8567C36.1006 38.8477 36.0673 38.8458 36.0348 38.8511L35.5897 38.9243C35.5562 38.9296 35.5244 38.9427 35.4967 38.9622L34.8778 39.3968L33.5948 40.1375L31.9346 41.0633L30.0695 41.7991L28.8837 42.1277L28.1315 42.2531L29.7631 38.6377C29.7838 38.5919 29.8195 38.554 29.8642 38.5307L32.1714 37.3278L33.2666 36.5855L34.0611 35.8782L35.0274 35.0739C35.0387 35.0646 35.0489 35.0542 35.0581 35.0429L36.1713 33.6742C36.1787 33.6651 36.1853 33.6555 36.1912 33.6454L37.3897 31.5869L38.3084 29.8756C38.3335 29.8286 38.3748 29.7921 38.4244 29.7725L40.2066 29.0704Z" fill="#7EB0DF"/>
<path d="M18.6666 40.1758L19.4355 42.0466L17.3891 41.6218C17.3764 41.6192 17.3639 41.6154 17.3519 41.6105L15.7165 40.9626L14.7757 40.5397C14.7641 40.5348 14.7529 40.5284 14.7423 40.5213L12.3335 38.9014L11.7768 38.5987C11.7355 38.5761 11.6883 38.5675 11.6417 38.5731L11.1152 38.6377C11.1009 38.6392 11.0868 38.6426 11.0731 38.6468L9.8736 39.0362L8.29692 39.6391L7.54605 39.8468L7.84543 39.0389L8.46323 37.5921L8.84254 36.1938C8.85117 36.162 8.85271 36.1287 8.84708 36.0962L8.76986 35.6518C8.76404 35.6184 8.75078 35.5867 8.73102 35.5592L8.29069 34.9444L7.53778 33.6684L6.59664 32.0171L5.84299 30.1589L5.50338 28.9763L5.37091 28.2253L9.00126 29.8228C9.04749 29.8431 9.08554 29.8784 9.10931 29.923L10.334 32.2187L11.0866 33.3069L11.8013 34.0946L12.6147 35.0534C12.6241 35.0645 12.6346 35.0747 12.646 35.0838L14.0251 36.184C14.0342 36.1913 14.0439 36.1979 14.0541 36.2037L16.1238 37.3827L17.8436 38.2851C17.8909 38.3099 17.9278 38.3508 17.9478 38.4L18.6666 40.1758Z" fill="#155998"/>
<path d="M23.7934 0L13.7653 19.9249L23.7934 14.8732V0Z" fill="#7EB0DF"/>
<path d="M23.7934 0.0187683V14.8732L33.8779 19.9437L23.7934 0.0187683Z" fill="#155998"/>
<path d="M6.94359 24L9.31455 19.0798L0 24H6.94359Z" fill="#25586F"/>
<path d="M6.94359 24L9.31455 19.0798L0 24H6.94359Z" fill="#7EB0DF"/>
<path d="M6.94359 24L9.31455 28.9202L0 24H6.94359Z" fill="#25586F"/>
<path d="M6.94359 24L9.31455 28.9202L0 24H6.94359Z" fill="#155998"/>
<path d="M40.7177 23.7371L38.3849 18.8545L47.5493 23.7371H40.7177Z" fill="#25586F"/>
<path d="M40.7177 23.7371L38.3849 18.8545L47.5493 23.7371H40.7177Z" fill="#7EB0DF"/>
<path d="M40.7177 23.7371L38.3849 28.6573L47.5493 23.7371H40.7177Z" fill="#25586F"/>
<path d="M40.7177 23.7371L38.3849 28.6573L47.5493 23.7371H40.7177Z" fill="#155998"/>
<path d="M23.8487 40.9953L18.9158 38.6509L23.8863 47.9388L23.8487 40.9953Z" fill="#25586F"/>
<path d="M23.8487 40.9953L18.9158 38.6509L23.8863 47.9388L23.8487 40.9953Z" fill="#7EB0DF"/>
<path d="M23.8486 40.9953L28.7559 38.5979L23.8862 47.9388L23.8486 40.9953Z" fill="#25586F"/>
<path d="M23.8486 40.9953L28.7559 38.5979L23.8862 47.9388L23.8486 40.9953Z" fill="#155998"/>
</g>
<defs>
<clipPath id="clip0_119_237">
<rect width="47.5493" height="48" rx="23.7746" fill="white"/>
</clipPath>
</defs>
</svg>
