<svg width="54" height="54" viewBox="0 0 54 54" fill="none" xmlns="http://www.w3.org/2000/svg">
<rect width="54" height="54" rx="24" fill="#155998" fill-opacity="0.15"/>
<path d="M23.5714 25.8C23.5714 25.5746 23.6617 25.3584 23.8225 25.199C23.9832 25.0396 24.2012 24.95 24.4286 24.95H33C33.2273 24.95 33.4453 25.0396 33.6061 25.199C33.7668 25.3584 33.8571 25.5746 33.8571 25.8C33.8571 26.0254 33.7668 26.2416 33.6061 26.401C33.4453 26.5604 33.2273 26.65 33 26.65H24.4286C24.2012 26.65 23.9832 26.5604 23.8225 26.401C23.6617 26.2416 23.5714 26.0254 23.5714 25.8ZM24.4286 30.05H33C33.2273 30.05 33.4453 29.9604 33.6061 29.801C33.7668 29.6416 33.8571 29.4254 33.8571 29.2C33.8571 28.9746 33.7668 28.7584 33.6061 28.599C33.4453 28.4396 33.2273 28.35 33 28.35H24.4286C24.2012 28.35 23.9832 28.4396 23.8225 28.599C23.6617 28.7584 23.5714 28.9746 23.5714 29.2C23.5714 29.4254 23.6617 29.6416 23.8225 29.801C23.9832 29.9604 24.2012 30.05 24.4286 30.05ZM39 20.7V33.45C39 34.1263 38.7291 34.7749 38.2468 35.2531C37.7646 35.7313 37.1106 36 36.4286 36H17.5714C16.8915 36 16.2392 35.733 15.7573 35.2573C15.2754 34.7816 15.0031 34.136 15 33.4617V23.25C15 23.0246 15.0903 22.8084 15.2511 22.649C15.4118 22.4896 15.6298 22.4 15.8571 22.4C16.0845 22.4 16.3025 22.4896 16.4632 22.649C16.624 22.8084 16.7143 23.0246 16.7143 23.25V33.45C16.7143 33.6754 16.8046 33.8916 16.9653 34.051C17.1261 34.2104 17.3441 34.3 17.5714 34.3C17.7988 34.3 18.0168 34.2104 18.1775 34.051C18.3383 33.8916 18.4286 33.6754 18.4286 33.45V20.7C18.4286 20.2491 18.6092 19.8167 18.9307 19.4979C19.2522 19.1791 19.6882 19 20.1429 19H37.2857C37.7404 19 38.1764 19.1791 38.4979 19.4979C38.8194 19.8167 39 20.2491 39 20.7ZM37.2857 20.7H20.1429V33.45C20.1433 33.7396 20.0936 34.0271 19.9961 34.3H36.4286C36.6559 34.3 36.8739 34.2104 37.0347 34.051C37.1954 33.8916 37.2857 33.6754 37.2857 33.45V20.7Z" fill="#1E1E1E"/>
</svg>
