<svg width="560" height="287" viewBox="0 0 560 287" fill="none" xmlns="http://www.w3.org/2000/svg">
<g clip-path="url(#clip0_95_65)">
<path d="M535.143 158.617L533.389 172.573L529.035 207.239H441.572C442.255 199.47 443.188 188.286 444.186 176.213C444.284 175.008 444.387 173.794 444.486 172.573C446.987 142.226 449.724 107.884 449.724 107.884L461.223 110.024L483.532 114.169L492.623 115.857L516.967 120.386C529.104 122.639 537.453 140.199 535.143 158.617Z" fill="#F2F2F2"/>
<path d="M468.985 51.7253L479.741 70.5312L459.068 85.1693L450.25 62.0533L468.985 51.7253Z" fill="#FFB6B6"/>
<path d="M455.292 69.5166C470.008 69.5166 481.938 57.597 481.938 42.8935C481.938 28.19 470.008 16.2705 455.292 16.2705C440.576 16.2705 428.646 28.19 428.646 42.8935C428.646 57.597 440.576 69.5166 455.292 69.5166Z" fill="#FFB6B6"/>
<path d="M453.379 48.8453C451.263 45.628 452.093 43.9452 450.322 42.7628C450.322 42.7628 449.609 42.287 444.508 42.0158C443.366 33.8025 441.94 32.8065 441.94 32.8065C440.297 31.6585 437.859 32.0315 436.341 32.7336C433.133 34.2185 433.505 37.4261 431.344 38.0399C428.36 38.8878 422.93 34.1078 422.395 28.6356C421.959 24.1719 424.837 19.8365 425.979 20.0659C427.111 20.2933 429.821 16.8364 431.284 16.8898C432.283 16.9262 436.366 15.153 437.465 15.2916C438.664 15.4431 442.619 17.5052 442.784 17.0341C443.929 13.7601 443.593 12.8517 444.564 11.9151C446.286 10.2554 449.103 11.4112 453.523 12.0316C462.615 13.3083 464.202 10.3127 468.862 12.3431C471.216 13.3688 473.186 16.1349 477.029 21.6253C482.403 29.3035 485.091 33.1426 485.108 37.6204C485.126 42.1869 482.912 41.897 481.94 48.6574C480.858 56.1828 483.157 59.6238 480.646 62.0687C478.704 63.9582 474.758 64.4068 472.685 62.7484C469.135 59.9091 473.781 53.058 469.853 48.0525C467.441 44.9799 462.592 43.6128 460.371 45.1316C457.859 46.8489 459.243 51.8895 457.477 52.3675C455.964 52.7768 453.748 49.4059 453.379 48.8453Z" fill="#2F2E41"/>
<path d="M515.449 153.701C514.705 166.398 511.753 170.407 510.719 185.402C510.494 188.694 510.358 192.515 510.358 197.072C510.358 198.234 510.364 199.358 510.364 200.455C510.364 202.791 510.319 204.999 510.048 207.239C509.841 209.027 509.486 210.828 508.898 212.726H451.51C451.503 212.713 451.503 212.7 451.496 212.687C451.161 211.228 450.947 209.834 450.786 208.498C450.734 208.072 450.689 207.652 450.65 207.239C450.599 206.755 450.553 206.277 450.508 205.806C450.334 203.928 450.159 202.153 449.746 200.455C449.19 198.112 448.182 195.904 446.115 193.774C445.269 192.903 444.423 192.225 443.596 191.631C443.434 191.521 443.279 191.411 443.117 191.302C440.83 189.733 438.666 188.603 436.792 185.402C436.76 185.357 436.734 185.305 436.709 185.26C436.386 184.698 435.546 183.226 434.938 181.264C434.299 179.224 433.911 176.662 434.609 174.041C436.269 167.831 442.42 167.212 447.446 160.937C447.989 160.26 448.525 159.511 449.035 158.678C451.309 154.986 451.923 151.733 452.646 147.866C452.763 147.24 452.866 146.62 452.95 146.02C453.015 145.568 453.073 145.123 453.118 144.684C453.518 140.998 453.325 137.822 452.853 134.982C451.316 125.68 446.78 119.922 449.985 111.576C450.993 108.955 452.421 106.986 453.861 105.302C456.91 101.732 460.044 99.4148 459.501 94.8061C458.952 90.1584 455.424 89.5192 455.031 85.459C454.83 83.4065 455.502 81.244 456.762 79.1203V79.114C460.793 72.2779 470.859 65.9843 477.254 66.1845C478.437 66.2169 479.483 66.4814 480.355 66.9913C483.515 68.8503 482.197 72.9105 487.036 78.604C490.634 82.8319 494.704 84.5232 496.248 85.3235C502.366 88.5125 507.341 97.9173 510.719 109.943C510.745 110.033 510.771 110.124 510.797 110.221C512.884 117.754 514.357 126.306 515.087 134.982C515.397 138.655 515.578 142.347 515.617 146C515.649 148.918 515.584 151.449 515.449 153.701Z" fill="#155998"/>
<path d="M472.474 197.202L471.304 200.455L470.568 202.495L468.862 207.239L466.885 212.726H454.178L456.309 207.239L457.298 204.683L458.939 200.455L461.691 193.354L472.474 197.202Z" fill="#FFB6B6"/>
<path d="M510.92 108.833C510.888 109.252 510.842 109.717 510.797 110.221C510.293 115.346 509.104 124.518 507.367 134.982C506.449 140.501 505.377 146.381 504.169 152.223C501.572 164.83 498.342 177.243 494.691 185.402C494.039 186.874 493.367 188.203 492.682 189.378C492.159 190.275 491.609 191.16 491.034 192.031C489.174 194.891 487.087 197.602 484.923 200.132C484.839 200.242 484.742 200.345 484.645 200.455C484.296 200.868 483.934 201.275 483.573 201.681C481.802 203.676 479.994 205.535 478.243 207.239C476.111 209.318 474.056 211.157 472.215 212.726H451.58L451.496 212.687L448.525 211.37C448.525 211.37 449.371 210.376 450.786 208.498C451.077 208.117 451.386 207.697 451.723 207.239C452.136 206.677 452.582 206.058 453.06 205.386C454.055 203.979 455.185 202.327 456.4 200.455C458.752 196.834 461.432 192.38 464.14 187.222C464.45 186.622 464.766 186.015 465.083 185.402C465.089 185.383 465.102 185.363 465.109 185.344C465.645 184.298 466.175 183.22 466.704 182.123C471.194 172.789 472.48 165.043 472.849 162.532C473.365 158.982 474.082 154.017 473.888 148.557C473.759 144.955 473.236 141.146 471.989 137.364V137.357C471.731 136.563 471.44 135.77 471.11 134.982C470.522 133.568 469.825 132.174 468.998 130.799C465.348 124.744 462.382 124.492 460.024 117.895C459.326 115.94 457.743 111.524 458.228 106.864V106.858C458.287 106.283 458.383 105.702 458.513 105.121V105.115C458.545 104.953 458.59 104.786 458.636 104.624C459.003 103.198 459.611 101.784 460.535 100.441C462.337 97.8335 464.798 96.284 467.001 95.3611L467.008 95.3545C469.553 94.2961 471.75 94.0701 472.177 94.0314C481.615 93.1924 488.935 101.119 492.934 105.45C494.478 107.122 495.893 108.523 497.185 109.665C507.244 118.638 510.003 112.906 510.719 109.943C510.829 109.485 510.888 109.091 510.92 108.833Z" fill="#155998"/>
<path d="M510.952 108.497C510.952 108.529 510.946 108.639 510.92 108.82C510.933 108.723 510.939 108.626 510.946 108.536C510.946 108.516 510.946 108.503 510.952 108.497Z" fill="#155998"/>
<path d="M459.643 244.704H113.33C110.112 244.704 107.49 247.318 107.49 250.533C107.49 253.754 110.112 256.368 113.33 256.368H459.643C462.86 256.368 465.477 253.754 465.477 250.533C465.477 247.318 462.86 244.704 459.643 244.704Z" fill="#E6E6E6"/>
<path d="M382.789 274.836H190.177C186.96 274.836 184.343 277.45 184.343 280.665C184.343 283.879 186.96 286.5 190.177 286.5H382.789C386.007 286.5 388.63 283.879 388.63 280.665C388.63 277.45 386.007 274.836 382.789 274.836Z" fill="#E6E6E6"/>
<path d="M151.866 52.9628L173.692 43.7853L183.053 62.9601L160.117 72.3137L151.866 52.9628Z" fill="#FFB6B6"/>
<path opacity="0.1" d="M151.866 52.9628L173.692 43.7853L183.053 62.9601L160.117 72.3137L151.866 52.9628Z" fill="black"/>
<path d="M154.969 45.656L176.5 70.443C176.5 70.443 161.522 117.679 146.543 121.888C131.565 126.097 103.948 146.675 103.948 146.675L69.3108 124.226L86.1615 99.4391C86.1615 99.4391 126.884 43.7853 137.65 43.7853C148.416 43.7853 154.969 45.656 154.969 45.656Z" fill="#155998"/>
<path d="M125.878 207.239H75.7562L72.5873 203.007L59.6497 185.726L56.6727 181.751C56.6727 181.751 45.4389 161.173 47.7793 142.466C50.1197 123.758 74.4596 119.549 74.4596 119.549H75.4613L105.259 145.711L103.48 170.059L112.917 185.726L125.878 207.239Z" fill="#2F2E41"/>
<path d="M86.0211 207.239H72.5873V187.363L86.0211 207.239Z" fill="#2F2E41"/>
<path d="M375.769 177.065L374.098 185.726L369.951 207.239H286.638C287.289 202.417 288.178 195.477 289.129 187.985C289.222 187.237 289.32 186.484 289.414 185.726C291.797 166.893 294.404 145.58 294.404 145.58L305.357 146.909L326.607 149.481L335.267 150.528L358.455 153.339C370.017 154.738 377.969 165.634 375.769 177.065Z" fill="#F2F2F2"/>
<path d="M493.673 207.239H448.485C449.173 206.43 449.562 205.963 449.562 205.963L463.108 203.727L491.019 199.125C491.019 199.125 492.292 202.413 493.673 207.239Z" fill="#2F2E41"/>
<path d="M301.998 62.3171L321.649 90.0852L287.371 91.108L283.691 65.0126L301.998 62.3171Z" fill="#A0616A"/>
<path opacity="0.1" d="M301.998 62.3171L321.649 90.0852L287.371 91.108L283.691 65.0126L301.998 62.3171Z" fill="black"/>
<path d="M205.085 119.851C202.563 112.583 196.766 107.992 192.138 109.596C187.509 111.2 185.801 118.391 188.325 125.661C189.293 128.579 190.946 131.223 193.147 133.371L204.22 164.03L218.508 158.532L206.075 128.891C206.473 125.842 206.133 122.742 205.085 119.851Z" fill="#A0616A"/>
<path d="M338.107 105.701L338.08 134.001L335.445 144.453L330.024 165.953L326.079 185.726L323.139 200.458L322.09 205.719C321.299 206.248 320.513 206.753 319.727 207.239H251.261C247.371 204.906 245.195 203.091 245.195 203.091C245.195 203.091 246.272 202.081 247.503 200.458C249.581 197.717 252.094 193.228 250.554 188.939C250.231 188.041 250.147 186.947 250.245 185.726C250.873 177.673 259.326 164.054 259.326 164.054L257.576 143.841L256.808 134.983L262.22 91.7924L279.862 81.5456L282.908 81.2511L312.972 79.6283L325.399 80.3438L325.965 80.4982L338.107 105.701Z" fill="#CCCCCC"/>
<path d="M339.442 207.239H324.464L323.804 200.458L323.79 200.322L328.03 200.032L339.063 199.279L339.255 203.339L339.405 206.454L339.442 207.239Z" fill="#FFB6B6"/>
<path d="M343.129 112.544L349.421 149.429L344.287 185.726L343.486 191.376L342.073 201.351L341.637 204.419L341.651 204.751L341.759 207.239H323.972L323.317 200.458L323.261 199.85L321.922 185.96L321.899 185.726L319.057 156.272L324.627 134.983L325.039 133.416V133.411L327.463 96.9604L325.586 80.3952L325.567 80.2408C325.605 80.2643 325.637 80.2877 325.675 80.311C325.773 80.3718 325.871 80.4326 325.965 80.4981C336.899 87.4291 343.415 99.5888 343.129 112.544Z" fill="#CCCCCC"/>
<path d="M268.593 98.8605L261.753 91.7919C261.753 91.7919 247.11 98.3873 246.38 102.046C245.651 105.705 219.798 159.448 219.798 159.448L208.55 129.433L193.91 139.2C193.91 139.2 205.657 185.799 216.644 187.987C227.63 190.175 264.452 132.832 264.452 132.832L268.593 98.8605Z" fill="#CCCCCC"/>
<path d="M546.323 185.402H13.6705C6.13114 185.402 0 191.534 0 199.067C0 206.6 6.13113 212.726 13.6705 212.726H546.323C553.863 212.726 560 206.6 560 199.067C560 191.534 553.863 185.402 546.323 185.402Z" fill="#E6E6E6"/>
<path d="M334.99 143.762L333.954 192.047C333.854 196.721 330.033 200.458 325.354 200.458H236.456C231.887 200.458 228.116 196.89 227.866 192.332L225.225 144.047C224.955 139.123 228.879 134.983 233.814 134.983H326.389C331.212 134.983 335.093 138.944 334.99 143.762Z" fill="#3F3D56"/>
<path d="M191.479 64.6184C203.225 64.6184 212.748 55.104 212.748 43.3674C212.748 31.6307 203.225 22.1163 191.479 22.1163C179.732 22.1163 170.209 31.6307 170.209 43.3674C170.209 55.104 179.732 64.6184 191.479 64.6184Z" fill="#FFB6B6"/>
<path d="M155.905 98.9714L158.245 124.226L174.16 188.298L160.411 193.113L137.182 123.291L133.973 95.23L155.905 98.9714Z" fill="#FFB6B6"/>
<path d="M149.574 143.762L148.539 192.047C148.438 196.721 144.617 200.458 139.938 200.458H51.0404C46.4719 200.458 42.7003 196.89 42.4509 192.332L39.809 144.047C39.5396 139.123 43.4631 134.983 48.3985 134.983H140.974C145.797 134.983 149.677 138.944 149.574 143.762Z" fill="#3F3D56"/>
<path d="M176.694 200.784C185.971 200.784 193.491 197.461 193.491 193.361C193.491 189.261 185.971 185.938 176.694 185.938C167.417 185.938 159.897 189.261 159.897 193.361C159.897 197.461 167.417 200.784 176.694 200.784Z" fill="#FFB6B6"/>
<path d="M122.905 102.833L132.501 51.7359C132.501 51.7359 159.181 47.9944 160.117 56.8803C161.054 65.7663 159.448 109.193 159.448 109.193L122.905 102.833Z" fill="#155998"/>
<path d="M182.893 46.7087C182.893 46.7087 196.05 42.017 201.6 39.4926C207.15 36.9682 218.175 54.5756 218.421 45.2765C218.666 35.9775 214.856 32.0779 214.856 32.0779C214.856 32.0779 213.905 11.7349 193.392 14.2783C193.392 14.2783 197.904 4.10046 183.094 2.52664C168.283 0.952831 145.242 36.6871 147.306 42.0274C149.369 47.3677 151.843 51.7828 145.989 57.4927C140.134 63.2027 129.172 95.4282 137.512 104.1C145.853 112.772 146.4 116.534 140.686 121.929C134.971 127.324 121.463 139.055 136.068 141.091C150.674 143.128 134.732 141.607 145.621 132.037C156.509 122.468 172.398 122.859 166.465 107.505C160.532 92.1518 170.839 70.1506 169.55 66.8129C168.26 63.4752 172.439 42.2807 172.439 42.2807C172.439 42.2807 182.166 40.853 182.893 46.7087Z" fill="#2F2E41"/>
<path d="M291.491 72.3677C304.278 72.3677 314.644 62.0106 314.644 49.2345C314.644 36.4583 304.278 26.1012 291.491 26.1012C278.704 26.1012 268.338 36.4583 268.338 49.2345C268.338 62.0106 278.704 72.3677 291.491 72.3677Z" fill="#A0616A"/>
<path d="M293.338 18.1334C292.668 18.5241 291.771 17.9329 291.556 17.1882C291.341 16.4434 291.592 15.6526 291.84 14.9183L293.089 11.2214C293.975 8.59949 294.915 5.88597 296.834 3.89035C299.73 0.878297 304.333 0.112044 308.476 0.667167C313.797 1.38006 319.047 4.25876 321.521 9.01907C323.995 13.7794 322.941 20.4217 318.471 23.3917C324.842 30.688 327.063 38.8195 326.713 48.4962C326.362 58.1728 315.808 67.0785 308.925 73.8953C307.388 72.9644 305.991 68.6016 306.836 67.0167C307.681 65.4318 306.47 63.5956 307.517 62.1358C308.564 60.6759 309.439 63.0005 308.381 61.5489C307.713 60.6329 310.32 58.5257 309.327 57.9774C304.526 55.3258 302.929 49.3464 299.914 44.7675C296.276 39.2446 290.051 35.5044 283.464 34.8838C279.835 34.542 276.002 35.1611 273.027 37.2661C270.053 39.3712 268.127 43.1328 268.817 46.7089C267.03 44.8967 266.141 42.2408 266.477 39.7193C266.812 37.1978 268.365 34.8662 270.563 33.583C269.226 29.1669 270.371 24.087 273.473 20.6697C276.576 17.2523 289.16 17.8344 293.689 18.7338L293.338 18.1334Z" fill="#2F2E41"/>
<path d="M294.042 35.0179C300.04 35.6649 304.371 40.8565 308.028 45.651C310.136 48.4144 312.344 51.4661 312.292 54.9402C312.238 58.4526 309.888 61.4653 308.764 64.794C306.928 70.2349 308.718 76.7083 313.088 80.4363C308.77 81.2551 304.101 78.0197 303.356 73.6913C302.488 68.6525 306.31 63.7893 305.858 58.6965C305.459 54.2097 301.92 50.7565 298.912 47.4017C295.903 44.047 293.078 39.5952 294.462 35.3083L294.042 35.0179Z" fill="#2F2E41"/>
<path d="M383.718 188.326C377.776 191.702 374.704 197.502 376.855 201.28C379.007 205.058 385.566 205.382 391.509 202.004C393.902 200.686 395.944 198.816 397.465 196.549L422.459 181.925L415.34 170.352L391.456 185.998C388.728 186.145 386.074 186.943 383.718 188.326Z" fill="#FFB6B6"/>
<path d="M468.342 81.0847C467.595 80.789 461.041 78.3093 455.058 81.5832C448.185 85.3441 447.124 93.9293 446.752 96.9405C445.891 103.896 448.425 105.456 448.96 112.497C449.961 125.672 452.6 110.642 448.386 116.656C446.927 118.738 432.029 150.995 423.813 157.314C407.835 169.602 397.688 178.257 397.688 178.257L409.272 190.829C409.272 190.829 427.576 185.956 443.755 175.46C460.351 164.693 468.649 159.309 475.069 148.778C475.622 147.871 488.85 125.426 481.745 100.608C480.125 94.947 477.156 84.5747 468.342 81.0847Z" fill="#155998"/>
<path d="M528.158 143.762L527.122 192.047C527.022 196.721 523.201 200.458 518.522 200.458H429.624C425.056 200.458 421.284 196.89 421.034 192.332L418.393 144.047C418.123 139.123 422.047 134.983 426.982 134.983H519.557C524.38 134.983 528.261 138.944 528.158 143.762Z" fill="#3F3D56"/>
</g>
<defs>
<clipPath id="clip0_95_65">
<rect width="560" height="286" fill="white" transform="translate(0 0.5)"/>
</clipPath>
</defs>
</svg>
