<svg width="154" height="35" viewBox="0 0 154 35" fill="none" xmlns="http://www.w3.org/2000/svg">
<path d="M45.1094 23.1914C45.1094 23.9336 44.957 24.5039 44.6523 24.9023C44.3555 25.3008 43.8594 25.5 43.1641 25.5C42.5078 25.5 42.043 25.3008 41.7695 24.9023C41.5039 24.5039 41.3711 23.9336 41.3711 23.1914V10.8047C41.3711 10.0625 41.5039 9.49219 41.7695 9.09375C42.043 8.69531 42.5078 8.49609 43.1641 8.49609C43.8594 8.49609 44.3555 8.69531 44.6523 9.09375C44.957 9.49219 45.1094 10.0625 45.1094 10.8047V23.1914Z" fill="#155998"/>
<path d="M46.2441 19.5938C46.2441 18.7656 46.3769 17.9844 46.6426 17.25C46.916 16.5078 47.3222 15.8594 47.8613 15.3047C48.4082 14.75 49.0879 14.3086 49.9004 13.9805C50.7207 13.6523 51.6816 13.4883 52.7832 13.4883C53.8379 13.4883 54.7715 13.6406 55.584 13.9453C56.3965 14.25 57.0801 14.6758 57.6347 15.2227C58.1894 15.7617 58.6113 16.4062 58.9004 17.1562C59.1894 17.8984 59.334 18.7109 59.334 19.5938C59.334 20.4141 59.1972 21.1914 58.9238 21.9258C58.6504 22.6523 58.2402 23.293 57.6933 23.8477C57.1465 24.3945 56.4629 24.832 55.6426 25.1602C54.8222 25.4805 53.8691 25.6406 52.7832 25.6406C51.7129 25.6406 50.7676 25.4883 49.9472 25.1836C49.1347 24.8711 48.4512 24.4453 47.8965 23.9062C47.3496 23.3594 46.9355 22.7188 46.6543 21.9844C46.3808 21.2422 46.2441 20.4453 46.2441 19.5938ZM50.1465 19.5938C50.1465 20.1094 50.1933 20.6016 50.2871 21.0703C50.3808 21.5312 50.5293 21.9375 50.7324 22.2891C50.9433 22.6406 51.2168 22.9219 51.5527 23.1328C51.8887 23.3359 52.2988 23.4375 52.7832 23.4375C53.2285 23.4375 53.6152 23.3438 53.9433 23.1562C54.2793 22.9688 54.5527 22.707 54.7637 22.3711C54.9824 22.0352 55.1465 21.6328 55.2558 21.1641C55.3652 20.6875 55.4199 20.1641 55.4199 19.5938C55.4199 19.0781 55.3691 18.5898 55.2676 18.1289C55.1738 17.6602 55.0215 17.25 54.8105 16.8984C54.5996 16.5391 54.3262 16.2578 53.9902 16.0547C53.6621 15.8438 53.2597 15.7383 52.7832 15.7383C52.3066 15.7383 51.9004 15.8398 51.5644 16.043C51.2285 16.2461 50.9551 16.5234 50.7441 16.875C50.5332 17.2266 50.3808 17.6367 50.2871 18.1055C50.1933 18.5742 50.1465 19.0703 50.1465 19.5938Z" fill="#155998"/>
<path d="M68.9533 23.2383C68.7423 23.6289 68.4845 23.9609 68.1798 24.2344C67.883 24.5078 67.5509 24.7344 67.1838 24.9141C66.8244 25.0859 66.4377 25.2148 66.0236 25.3008C65.6173 25.3789 65.1994 25.418 64.7697 25.418C64.0509 25.418 63.3947 25.2891 62.8009 25.0312C62.2072 24.7734 61.6955 24.4023 61.2658 23.918C60.8439 23.4258 60.5158 22.8242 60.2814 22.1133C60.047 21.4023 59.9298 20.5898 59.9298 19.6758C59.9298 18.8164 60.0392 18.0117 60.258 17.2617C60.4767 16.5117 60.7931 15.8594 61.2072 15.3047C61.6291 14.75 62.1447 14.3125 62.7541 13.9922C63.3634 13.6719 64.0588 13.5117 64.84 13.5117C65.7306 13.5117 66.5197 13.6836 67.2072 14.0273C67.9025 14.3711 68.5002 14.9336 69.0002 15.7148V15.4102C69.0002 14.8477 69.1525 14.4258 69.4572 14.1445C69.7697 13.8555 70.1994 13.7109 70.7463 13.7109C71.0744 13.7109 71.3517 13.7656 71.5783 13.875C71.8048 13.9766 71.9845 14.1328 72.1173 14.3438C72.2502 14.5469 72.3439 14.8008 72.3986 15.1055C72.4611 15.4023 72.4923 15.7422 72.4923 16.125V23.9766C72.4923 24.9297 72.3713 25.7812 72.1291 26.5312C71.8947 27.2812 71.5275 27.9141 71.0275 28.4297C70.5275 28.9453 69.8869 29.3359 69.1056 29.6016C68.3244 29.875 67.3947 30.0117 66.3166 30.0117C65.5588 30.0117 64.8869 29.9766 64.3009 29.9062C63.7228 29.8438 63.2228 29.7461 62.8009 29.6133C62.3791 29.4648 62.0588 29.3008 61.84 29.1211C61.6291 28.9414 61.5236 28.707 61.5236 28.418C61.5236 28.2539 61.547 28.0977 61.5939 27.9492C61.6408 27.8008 61.7111 27.668 61.8048 27.5508C61.9064 27.4414 62.0353 27.3516 62.1916 27.2812C62.3556 27.2188 62.5548 27.1875 62.7892 27.1875C63.0392 27.1875 63.2892 27.2031 63.5392 27.2344C63.797 27.2656 64.0627 27.2969 64.3361 27.3281C64.6173 27.3672 64.9103 27.4023 65.215 27.4336C65.5275 27.4648 65.8634 27.4805 66.2228 27.4805C66.6525 27.4805 67.0353 27.4375 67.3713 27.3516C67.7072 27.2656 67.9923 27.1133 68.2267 26.8945C68.4611 26.6758 68.6408 26.3828 68.7658 26.0156C68.8908 25.6562 68.9533 25.1953 68.9533 24.6328V23.2383ZM68.9533 19.5938C68.9533 19.0234 68.9103 18.5039 68.8244 18.0352C68.7463 17.5664 68.6095 17.168 68.4142 16.8398C68.2189 16.5039 67.9572 16.2461 67.6291 16.0664C67.3009 15.8789 66.8908 15.7852 66.3986 15.7852C65.9142 15.7852 65.5119 15.8828 65.1916 16.0781C64.8791 16.2734 64.6291 16.543 64.4416 16.8867C64.2541 17.2305 64.1213 17.6328 64.0431 18.0938C63.9728 18.5547 63.9377 19.0469 63.9377 19.5703C63.9377 20.7656 64.1486 21.6641 64.5705 22.2656C64.9923 22.8672 65.6056 23.168 66.4103 23.168C66.7853 23.1602 67.1252 23.0898 67.4298 22.957C67.7423 22.8164 68.0119 22.6016 68.2384 22.3125C68.465 22.0234 68.6408 21.6562 68.7658 21.2109C68.8908 20.7656 68.9533 20.2266 68.9533 19.5938Z" fill="#155998"/>
<path d="M73.5686 19.5938C73.5686 18.7656 73.7014 17.9844 73.967 17.25C74.2405 16.5078 74.6467 15.8594 75.1858 15.3047C75.7327 14.75 76.4123 14.3086 77.2248 13.9805C78.0452 13.6523 79.0061 13.4883 80.1077 13.4883C81.1623 13.4883 82.0959 13.6406 82.9084 13.9453C83.7209 14.25 84.4045 14.6758 84.9592 15.2227C85.5139 15.7617 85.9358 16.4062 86.2248 17.1562C86.5139 17.8984 86.6584 18.7109 86.6584 19.5938C86.6584 20.4141 86.5217 21.1914 86.2483 21.9258C85.9748 22.6523 85.5647 23.293 85.0178 23.8477C84.4709 24.3945 83.7873 24.832 82.967 25.1602C82.1467 25.4805 81.1936 25.6406 80.1077 25.6406C79.0373 25.6406 78.092 25.4883 77.2717 25.1836C76.4592 24.8711 75.7756 24.4453 75.2209 23.9062C74.6741 23.3594 74.26 22.7188 73.9787 21.9844C73.7053 21.2422 73.5686 20.4453 73.5686 19.5938ZM77.4709 19.5938C77.4709 20.1094 77.5178 20.6016 77.6116 21.0703C77.7053 21.5312 77.8537 21.9375 78.0569 22.2891C78.2678 22.6406 78.5412 22.9219 78.8772 23.1328C79.2131 23.3359 79.6233 23.4375 80.1077 23.4375C80.553 23.4375 80.9397 23.3438 81.2678 23.1562C81.6037 22.9688 81.8772 22.707 82.0881 22.3711C82.3069 22.0352 82.4709 21.6328 82.5803 21.1641C82.6897 20.6875 82.7444 20.1641 82.7444 19.5938C82.7444 19.0781 82.6936 18.5898 82.592 18.1289C82.4983 17.6602 82.3459 17.25 82.135 16.8984C81.9241 16.5391 81.6506 16.2578 81.3147 16.0547C80.9866 15.8438 80.5842 15.7383 80.1077 15.7383C79.6311 15.7383 79.2248 15.8398 78.8889 16.043C78.553 16.2461 78.2795 16.5234 78.0686 16.875C77.8577 17.2266 77.7053 17.6367 77.6116 18.1055C77.5178 18.5742 77.4709 19.0703 77.4709 19.5938Z" fill="#155998"/>
<path d="M91.6839 9.53906C91.6839 9.79688 91.6253 10.0273 91.5081 10.2305C91.3909 10.4258 91.2386 10.5898 91.0511 10.7227C90.8636 10.8555 90.6448 10.957 90.3948 11.0273C90.1527 11.0898 89.9027 11.1211 89.6448 11.1211C89.3714 11.1211 89.1097 11.0859 88.8597 11.0156C88.6175 10.9453 88.4027 10.8438 88.2152 10.7109C88.0277 10.5703 87.8792 10.4023 87.7698 10.207C87.6605 10.0117 87.6058 9.78906 87.6058 9.53906C87.6058 9.3125 87.6566 9.10547 87.7581 8.91797C87.8675 8.72266 88.012 8.55469 88.1917 8.41406C88.3714 8.27344 88.5863 8.16406 88.8363 8.08594C89.0863 8.00781 89.3597 7.96875 89.6566 7.96875C89.9144 7.96875 90.1644 8.00391 90.4066 8.07422C90.6566 8.14453 90.8753 8.24609 91.0628 8.37891C91.2503 8.51172 91.3988 8.67578 91.5081 8.87109C91.6253 9.06641 91.6839 9.28906 91.6839 9.53906ZM91.5081 23.1914C91.5081 23.9336 91.3558 24.5039 91.0511 24.9023C90.7542 25.3008 90.2581 25.5 89.5628 25.5C88.9066 25.5 88.4417 25.3008 88.1683 24.9023C87.9027 24.5039 87.7698 23.9336 87.7698 23.1914V16.0195C87.7698 15.2773 87.9027 14.707 88.1683 14.3086C88.4417 13.9102 88.9066 13.7109 89.5628 13.7109C90.2581 13.7109 90.7542 13.9102 91.0511 14.3086C91.3558 14.707 91.5081 15.2773 91.5081 16.0195V23.1914Z" fill="#155998"/>
<path d="M96.8969 19.5703C96.8969 20.0938 96.9359 20.582 97.0141 21.0352C97.1 21.4883 97.2406 21.8867 97.4359 22.2305C97.6391 22.5664 97.9047 22.832 98.2328 23.0273C98.5687 23.2227 98.9828 23.3203 99.475 23.3203C99.9281 23.3203 100.307 23.2266 100.612 23.0391C100.924 22.8438 101.174 22.5781 101.362 22.2422C101.549 21.8984 101.682 21.4961 101.76 21.0352C101.846 20.5742 101.889 20.0742 101.889 19.5352C101.889 19.1055 101.858 18.668 101.795 18.2227C101.733 17.7695 101.616 17.3594 101.444 16.9922C101.272 16.625 101.034 16.3242 100.729 16.0898C100.424 15.8555 100.026 15.7383 99.5336 15.7383C99.0414 15.7383 98.6234 15.8164 98.2797 15.9727C97.9437 16.1289 97.6703 16.3672 97.4594 16.6875C97.2562 17.0078 97.1117 17.4102 97.0258 17.8945C96.9398 18.3711 96.8969 18.9297 96.8969 19.5703ZM96.8852 16.0195C97.0805 15.6055 97.3305 15.2422 97.6352 14.9297C97.9398 14.6172 98.2758 14.3555 98.643 14.1445C99.0102 13.9336 99.393 13.7773 99.7914 13.6758C100.198 13.5664 100.6 13.5117 100.998 13.5117C101.717 13.5117 102.366 13.6719 102.944 13.9922C103.522 14.3125 104.014 14.75 104.42 15.3047C104.834 15.8516 105.151 16.5 105.37 17.25C105.588 17.9922 105.698 18.7891 105.698 19.6406C105.698 20.5234 105.58 21.332 105.346 22.0664C105.12 22.8008 104.795 23.4336 104.373 23.9648C103.959 24.4883 103.459 24.8984 102.873 25.1953C102.295 25.4922 101.651 25.6406 100.94 25.6406C100.065 25.6406 99.2836 25.4375 98.5961 25.0312C97.9086 24.625 97.3383 24.0547 96.8852 23.3203V27.5391C96.8852 28.2812 96.7328 28.8516 96.4281 29.25C96.1312 29.6484 95.6352 29.8477 94.9398 29.8477C94.2836 29.8477 93.8187 29.6484 93.5453 29.25C93.2797 28.8516 93.1469 28.2812 93.1469 27.5391V16.0195C93.1469 15.2773 93.2797 14.707 93.5453 14.3086C93.8187 13.9102 94.2836 13.7109 94.9398 13.7109C95.6352 13.7109 96.1312 13.9102 96.4281 14.3086C96.7328 14.707 96.8852 15.2773 96.8852 16.0195Z" fill="#155998"/>
<path d="M109.821 16.8516C109.821 17.1562 109.954 17.3945 110.219 17.5664C110.485 17.7305 110.852 17.8672 111.321 17.9766C111.766 18.0781 112.223 18.1758 112.692 18.2695C113.161 18.3633 113.618 18.4727 114.063 18.5977C114.508 18.7148 114.926 18.8555 115.317 19.0195C115.707 19.1836 116.051 19.3906 116.348 19.6406C116.645 19.8828 116.879 20.1797 117.051 20.5312C117.223 20.875 117.309 21.2891 117.309 21.7734C117.309 22.3828 117.184 22.9258 116.934 23.4023C116.684 23.8711 116.329 24.2695 115.868 24.5977C115.415 24.9258 114.872 25.1797 114.239 25.3594C113.606 25.5391 112.907 25.6328 112.141 25.6406C111.415 25.6406 110.715 25.5938 110.043 25.5C109.372 25.4141 108.774 25.2773 108.25 25.0898C107.735 24.9023 107.321 24.6719 107.008 24.3984C106.696 24.1172 106.54 23.7891 106.54 23.4141C106.54 23.0859 106.645 22.832 106.856 22.6523C107.067 22.4727 107.336 22.3828 107.665 22.3828C107.79 22.3828 107.938 22.4062 108.11 22.4531C108.282 22.5 108.469 22.5586 108.672 22.6289C108.875 22.6992 109.09 22.7773 109.317 22.8633C109.551 22.9414 109.793 23.0117 110.043 23.0742C110.356 23.1602 110.676 23.2305 111.004 23.2852C111.34 23.332 111.684 23.3555 112.036 23.3555C112.254 23.3555 112.469 23.3359 112.68 23.2969C112.891 23.25 113.079 23.1836 113.243 23.0977C113.415 23.0039 113.555 22.8867 113.665 22.7461C113.774 22.6055 113.84 22.4336 113.864 22.2305C113.887 22.1836 113.907 22.1367 113.922 22.0898C113.938 22.043 113.946 21.9883 113.946 21.9258C113.946 21.707 113.844 21.5117 113.641 21.3398C113.446 21.168 113.168 21.0312 112.809 20.9297C112.207 20.7891 111.633 20.6602 111.086 20.543C110.54 20.4258 110.032 20.3008 109.563 20.168C109.102 20.0352 108.68 19.8828 108.297 19.7109C107.922 19.5391 107.602 19.3281 107.336 19.0781C107.079 18.8281 106.875 18.5273 106.727 18.1758C106.586 17.8242 106.516 17.3984 106.516 16.8984C106.516 16.3594 106.637 15.8789 106.879 15.457C107.129 15.0273 107.485 14.668 107.946 14.3789C108.407 14.0898 108.965 13.8711 109.622 13.7227C110.278 13.5664 111.02 13.4883 111.848 13.4883C113.332 13.4883 114.461 13.668 115.235 14.0273C116.016 14.3789 116.407 14.8398 116.407 15.4102C116.407 15.7305 116.301 15.9766 116.09 16.1484C115.879 16.3125 115.625 16.3945 115.329 16.3945C115.172 16.3945 115.008 16.3672 114.836 16.3125C114.672 16.25 114.473 16.1836 114.239 16.1133C114.004 16.0352 113.723 15.9688 113.395 15.9141C113.075 15.8516 112.676 15.8203 112.2 15.8203C111.84 15.8203 111.512 15.8359 111.215 15.8672C110.926 15.8984 110.676 15.9531 110.465 16.0312C110.262 16.1094 110.102 16.2148 109.985 16.3477C109.875 16.4805 109.821 16.6484 109.821 16.8516Z" fill="#155998"/>
<path d="M122.065 21.1523C122.065 21.5195 122.112 21.8398 122.206 22.1133C122.307 22.3867 122.444 22.6172 122.616 22.8047C122.788 22.9844 122.987 23.1211 123.213 23.2148C123.448 23.3008 123.698 23.3438 123.963 23.3438C124.276 23.3438 124.577 23.2969 124.866 23.2031C125.155 23.1094 125.409 22.9648 125.628 22.7695C125.854 22.5742 126.034 22.3281 126.167 22.0312C126.299 21.7344 126.366 21.3867 126.366 20.9883V16.0195C126.366 15.2773 126.499 14.707 126.764 14.3086C127.038 13.9102 127.503 13.7109 128.159 13.7109C128.854 13.7109 129.35 13.9102 129.647 14.3086C129.952 14.707 130.104 15.2773 130.104 16.0195V23.1914C130.104 23.9336 129.952 24.5039 129.647 24.9023C129.35 25.3008 128.854 25.5 128.159 25.5C127.503 25.5 127.038 25.3008 126.764 24.9023C126.499 24.5039 126.366 23.9336 126.366 23.1914C126.202 23.5508 125.987 23.8789 125.721 24.1758C125.463 24.4727 125.159 24.7305 124.807 24.9492C124.463 25.1602 124.081 25.3242 123.659 25.4414C123.245 25.5586 122.795 25.6172 122.311 25.6172C121.788 25.6172 121.284 25.5273 120.799 25.3477C120.323 25.1602 119.901 24.8867 119.534 24.5273C119.167 24.1602 118.874 23.707 118.655 23.168C118.436 22.6289 118.327 22 118.327 21.2812V16.0195C118.327 15.2773 118.46 14.707 118.725 14.3086C118.999 13.9102 119.463 13.7109 120.12 13.7109C120.815 13.7109 121.311 13.9102 121.608 14.3086C121.913 14.707 122.065 15.2773 122.065 16.0195V21.1523Z" fill="#155998"/>
<path d="M131.801 16.0195C131.801 15.2773 131.934 14.707 132.2 14.3086C132.473 13.9102 132.938 13.7109 133.594 13.7109C134.29 13.7109 134.786 13.9102 135.083 14.3086C135.387 14.707 135.54 15.2773 135.54 16.0195C135.696 15.6445 135.907 15.3047 136.173 15C136.446 14.6875 136.755 14.4219 137.098 14.2031C137.45 13.9844 137.829 13.8164 138.235 13.6992C138.641 13.5742 139.063 13.5117 139.501 13.5117C139.907 13.5117 140.305 13.5664 140.696 13.6758C141.094 13.7773 141.462 13.9453 141.798 14.1797C142.141 14.4062 142.442 14.6953 142.7 15.0469C142.958 15.3984 143.157 15.8203 143.298 16.3125C143.54 15.7891 143.825 15.3477 144.153 14.9883C144.481 14.6289 144.837 14.3398 145.219 14.1211C145.602 13.9023 146.001 13.7461 146.415 13.6523C146.837 13.5586 147.258 13.5117 147.68 13.5117C148.18 13.5117 148.657 13.6016 149.11 13.7812C149.571 13.9609 149.973 14.2344 150.317 14.6016C150.669 14.9609 150.946 15.418 151.149 15.9727C151.36 16.5195 151.465 17.1602 151.465 17.8945V23.1914C151.465 23.9336 151.313 24.5039 151.008 24.9023C150.712 25.3008 150.215 25.5 149.52 25.5C148.864 25.5 148.399 25.3008 148.126 24.9023C147.86 24.5039 147.727 23.9336 147.727 23.1914V18.0586C147.727 17.707 147.68 17.3945 147.587 17.1211C147.493 16.8398 147.36 16.6055 147.188 16.418C147.024 16.2227 146.829 16.0781 146.602 15.9844C146.376 15.8828 146.133 15.832 145.876 15.832C145.555 15.832 145.251 15.8828 144.962 15.9844C144.673 16.0859 144.419 16.2422 144.2 16.4531C143.989 16.6641 143.817 16.9336 143.684 17.2617C143.559 17.5898 143.497 17.9844 143.497 18.4453V23.1914C143.497 23.9336 143.344 24.5039 143.04 24.9023C142.743 25.3008 142.247 25.5 141.551 25.5C140.895 25.5 140.43 25.3008 140.157 24.9023C139.891 24.5039 139.758 23.9336 139.758 23.1914V18.2812C139.758 17.4766 139.59 16.8672 139.255 16.4531C138.926 16.0391 138.477 15.832 137.907 15.832C137.571 15.832 137.258 15.8867 136.969 15.9961C136.68 16.1055 136.43 16.2656 136.219 16.4766C136.008 16.6875 135.84 16.9492 135.715 17.2617C135.598 17.5742 135.54 17.9336 135.54 18.3398V23.1914C135.54 23.9336 135.387 24.5039 135.083 24.9023C134.786 25.3008 134.29 25.5 133.594 25.5C132.938 25.5 132.473 25.3008 132.2 24.9023C131.934 24.5039 131.801 23.9336 131.801 23.1914V16.0195Z" fill="#155998"/>
<path d="M17 23.5C13.6863 23.5 11 20.8137 11 17.5C11 14.1863 13.6863 11.5 17 11.5C20.3137 11.5 23 14.1863 23 17.5C23 20.8137 20.3137 23.5 17 23.5Z" fill="#155998"/>
<path d="M5.37629 19.5496C3.63754 19.8562 2.44572 21.5358 3.11317 23.1704C4.04501 25.4524 5.53164 27.4856 7.45895 29.0744C10.2149 31.3461 13.6909 32.56 17.2619 32.4977C20.8329 32.4354 24.2645 31.1009 26.9395 28.7343C28.8101 27.0793 30.2249 24.9954 31.0766 22.6823C31.6866 21.0254 30.4368 19.3884 28.6884 19.1427C26.9401 18.897 25.3703 20.1696 24.5067 21.7096C24.0386 22.5443 23.4309 23.3016 22.7029 23.9457C21.1681 25.3036 19.1992 26.0692 17.1504 26.105C15.1015 26.1407 13.1071 25.4443 11.5259 24.1408C10.7758 23.5225 10.1421 22.7869 9.64508 21.969C8.72829 20.4601 7.11504 19.243 5.37629 19.5496Z" fill="#7EB0DF"/>
<path d="M31.884 19.3745C31.9606 18.7604 32 18.1348 32 17.5C32 9.21573 25.2843 2.5 17 2.5C8.71573 2.5 2 9.21573 2 17.5C2 18.3147 2.06495 19.1142 2.18996 19.8937C2.87894 18.9505 3.95426 18.2772 5.11576 18.0724C6.37245 17.8508 7.51458 18.1556 8.48027 18.7253C8.42322 18.3251 8.3937 17.916 8.3937 17.5C8.3937 12.7469 12.2469 8.8937 17 8.8937C21.7531 8.8937 25.6063 12.7469 25.6063 17.5C25.6063 17.8134 25.5895 18.1229 25.5569 18.4276C26.5022 17.8243 27.6332 17.4796 28.8971 17.6573C30.0647 17.8214 31.1625 18.4564 31.884 19.3745Z" fill="#155998"/>
</svg>
