<svg width="166" height="49" viewBox="0 0 166 49" fill="none" xmlns="http://www.w3.org/2000/svg">
<g clip-path="url(#clip0_43_78)">
<path d="M8.27472 19.2042L6.78127 19.7473C6.61849 19.8065 6.45256 19.6675 6.48223 19.4969L6.71205 18.1756C6.71468 18.1603 6.71892 18.1453 6.72467 18.1309L7.37331 16.5L7.79734 15.5597C7.8026 15.5481 7.8088 15.5369 7.81594 15.5264L9.43904 13.1197L9.74251 12.5634C9.76497 12.5222 9.77402 12.4749 9.76839 12.4283L9.70454 11.9018C9.70281 11.8875 9.69973 11.8734 9.69526 11.8597L9.30758 10.6596L8.70664 9.08216L8.50007 8.33099L9.30758 8.63146L10.7536 9.25117L12.1513 9.63236C12.1831 9.64103 12.2164 9.64265 12.2489 9.63705L12.6934 9.56039C12.7268 9.55465 12.7585 9.54139 12.7861 9.52171L13.4015 9.08216L14.6785 8.33099L16.3311 7.39202L18.1902 6.64084L19.3733 6.30282L19.7092 6.24404C19.8865 6.21301 20.0269 6.39232 19.9542 6.55705L18.5222 9.79957C18.5018 9.84576 18.4664 9.88377 18.4218 9.90751L16.1245 11.1291L15.0353 11.8803L14.2465 12.5939L13.2867 13.406C13.2756 13.4155 13.2654 13.4259 13.2563 13.4373L12.1433 14.8286L10.7688 16.816C10.7587 16.8306 10.7504 16.8464 10.7439 16.863L10.2767 18.0743C10.2573 18.1248 10.2203 18.1666 10.1725 18.1921L8.27472 19.2042Z" fill="#155998"/>
<path d="M29.743 8.03605L29.2122 6.53817C29.1544 6.37491 29.2947 6.21014 29.4651 6.2412L30.7845 6.48187C30.7997 6.48465 30.8147 6.48901 30.829 6.49487L32.4545 7.15691L33.3913 7.58869C33.4029 7.59402 33.414 7.60033 33.4245 7.60754L35.8177 9.2504L36.3715 9.55845C36.4126 9.58125 36.4597 9.59068 36.5063 9.58542L37.0334 9.52593C37.0477 9.52431 37.0619 9.52135 37.0756 9.51703L38.2788 9.13922L39.861 8.55128L40.6141 8.35091L40.3069 9.1559L39.6751 10.5968L39.2826 11.9913C39.2736 12.0231 39.2717 12.0563 39.277 12.0889L39.3502 12.534C39.3555 12.5675 39.3686 12.5992 39.3882 12.627L39.8224 13.246L40.563 14.5291L41.4885 16.1894L42.2242 18.0546L42.5525 19.2405L42.6085 19.5768C42.6381 19.7544 42.4578 19.8933 42.2937 19.8192L39.0629 18.3606C39.0171 18.3398 38.9792 18.3041 38.9559 18.2593L37.7532 15.952L37.011 14.8567L36.3039 14.0621L35.4997 13.0956C35.4904 13.0844 35.48 13.0742 35.4687 13.065L34.0866 11.9405L32.1106 10.5497C32.096 10.5395 32.0803 10.531 32.0637 10.5245L30.8564 10.0473C30.8061 10.0274 30.7646 9.99008 30.7395 9.94212L29.743 8.03605Z" fill="#7EB0DF"/>
<path d="M40.9319 29.5704L42.8099 28.8192L42.3659 30.8615C42.3629 30.8742 42.3592 30.8866 42.3543 30.8986L41.691 32.5278L41.2594 33.4646C41.2542 33.4762 41.2478 33.4873 41.2407 33.4978L39.5982 35.8913L39.2902 36.4452C39.2673 36.4862 39.2579 36.5333 39.2632 36.58L39.3225 37.107C39.3244 37.1213 39.3274 37.1355 39.3316 37.1492L39.7098 38.3524L40.2979 39.9347L40.4981 40.6874L39.6932 40.3806L38.2523 39.7492L36.8577 39.3567C36.8259 39.3477 36.7927 39.3458 36.7601 39.3511L36.315 39.4243C36.2816 39.4296 36.2498 39.4427 36.222 39.4622L35.6031 39.8968L34.3201 40.6375L32.66 41.5633L30.7948 42.2991L29.609 42.6277L28.8568 42.7531L30.4884 39.1377C30.5092 39.0919 30.5448 39.054 30.5896 39.0307L32.8967 37.8278L33.992 37.0855L34.7865 36.3782L35.7528 35.5739C35.764 35.5646 35.7743 35.5542 35.7835 35.5429L36.8967 34.1742C36.904 34.1651 36.9107 34.1555 36.9166 34.1454L38.115 32.0869L39.0337 30.3756C39.0589 30.3286 39.1002 30.2921 39.1498 30.2725L40.9319 29.5704Z" fill="#7EB0DF"/>
<path d="M19.3919 40.6758L20.1608 42.5466L18.1144 42.1218C18.1017 42.1192 18.0892 42.1154 18.0771 42.1105L16.4418 41.4626L15.501 41.0397C15.4894 41.0348 15.4782 41.0284 15.4676 41.0213L13.0588 39.4014L12.5021 39.0987C12.4608 39.0761 12.4136 39.0675 12.367 39.0731L11.8405 39.1377C11.8262 39.1392 11.8121 39.1426 11.7984 39.1468L10.5989 39.5362L9.0222 40.1391L8.27133 40.3468L8.57071 39.5389L9.18851 38.0921L9.56782 36.6938C9.57645 36.662 9.57799 36.6287 9.57236 36.5962L9.49514 36.1518C9.48932 36.1184 9.47606 36.0867 9.4563 36.0592L9.01597 35.4444L8.26306 34.1684L7.32192 32.5171L6.56827 30.6589L6.22866 29.4763L6.09619 28.7253L9.72654 30.3228C9.77277 30.3431 9.81082 30.3784 9.8346 30.423L11.0593 32.7187L11.8119 33.8069L12.5265 34.5946L13.34 35.5534C13.3494 35.5645 13.3599 35.5747 13.3713 35.5838L14.7504 36.684C14.7595 36.6913 14.7692 36.6979 14.7793 36.7037L16.8491 37.8827L18.5689 38.7851C18.6162 38.8099 18.653 38.8508 18.6731 38.9L19.3919 40.6758Z" fill="#155998"/>
<path d="M24.5188 0.5L14.4906 20.4249L24.5188 15.3732V0.5Z" fill="#7EB0DF"/>
<path d="M24.5188 0.518768V15.3732L34.6033 20.4437L24.5188 0.518768Z" fill="#155998"/>
<path d="M7.66893 24.5L10.0399 19.5798L0.725342 24.5H7.66893Z" fill="#25586F"/>
<path d="M7.66893 24.5L10.0399 19.5798L0.725342 24.5H7.66893Z" fill="#7EB0DF"/>
<path d="M7.66893 24.5L10.0399 29.4202L0.725342 24.5H7.66893Z" fill="#25586F"/>
<path d="M7.66893 24.5L10.0399 29.4202L0.725342 24.5H7.66893Z" fill="#155998"/>
<path d="M41.4431 24.2371L39.1104 19.3545L48.2747 24.2371H41.4431Z" fill="#25586F"/>
<path d="M41.4431 24.2371L39.1104 19.3545L48.2747 24.2371H41.4431Z" fill="#7EB0DF"/>
<path d="M41.4431 24.2371L39.1104 29.1573L48.2747 24.2371H41.4431Z" fill="#25586F"/>
<path d="M41.4431 24.2371L39.1104 29.1573L48.2747 24.2371H41.4431Z" fill="#155998"/>
<path d="M24.574 41.4953L19.6411 39.1509L24.6116 48.4388L24.574 41.4953Z" fill="#25586F"/>
<path d="M24.574 41.4953L19.6411 39.1509L24.6116 48.4388L24.574 41.4953Z" fill="#7EB0DF"/>
<path d="M24.574 41.4953L29.4813 39.0979L24.6115 48.4388L24.574 41.4953Z" fill="#25586F"/>
<path d="M24.574 41.4953L29.4813 39.0979L24.6115 48.4388L24.574 41.4953Z" fill="#155998"/>
</g>
<path d="M73.9259 8.54724V26.6328H72.1542C71.8802 26.6328 71.6492 26.5911 71.4608 26.5078C71.2811 26.4161 71.1056 26.266 70.9344 26.0575L61.2406 14.0005C61.2919 14.5507 61.3177 15.0594 61.3177 15.5263V26.6328H58.2747V8.54724H60.085C60.2306 8.54724 60.3547 8.55555 60.4575 8.57231C60.5686 8.58062 60.6628 8.60568 60.7398 8.64737C60.8254 8.6806 60.9068 8.73483 60.9839 8.8099C61.0609 8.87666 61.1465 8.96834 61.2406 9.08509L70.973 21.1921C70.9473 20.9003 70.9259 20.6127 70.9088 20.3292C70.8916 20.0457 70.8831 19.783 70.8831 19.5412V8.54724H73.9259ZM82.9877 13.6003C83.9634 13.6003 84.8494 13.7545 85.6454 14.063C86.4501 14.3715 87.1348 14.8093 87.6998 15.3763C88.2732 15.9432 88.7142 16.6354 89.0223 17.4525C89.3303 18.2696 89.4845 19.1827 89.4845 20.1916C89.4845 21.2089 89.3303 22.126 89.0223 22.9432C88.7142 23.7604 88.2732 24.4565 87.6998 25.032C87.1348 25.6073 86.4501 26.0492 85.6454 26.3576C84.8494 26.6662 83.9634 26.8204 82.9877 26.8204C82.0033 26.8204 81.1088 26.6662 80.3042 26.3576C79.4997 26.0492 78.8106 25.6073 78.2371 25.032C77.6721 24.4565 77.2313 23.7604 76.9147 22.9432C76.6064 22.126 76.4524 21.2089 76.4524 20.1916C76.4524 19.1827 76.6064 18.2696 76.9147 17.4525C77.2313 16.6354 77.6721 15.9432 78.2371 15.3763C78.8106 14.8093 79.4997 14.3715 80.3042 14.063C81.1088 13.7545 82.0033 13.6003 82.9877 13.6003ZM82.9877 24.4441C84.0833 24.4441 84.8922 24.0856 85.4144 23.3684C85.9451 22.6513 86.2104 21.6007 86.2104 20.2165C86.2104 18.8324 85.9451 17.7777 85.4144 17.0523C84.8922 16.3268 84.0833 15.9642 82.9877 15.9642C81.8749 15.9642 81.0489 16.331 80.5097 17.0648C79.9789 17.7902 79.7136 18.8407 79.7136 20.2165C79.7136 21.5923 79.9789 22.643 80.5097 23.3684C81.0489 24.0856 81.8749 24.4441 82.9877 24.4441ZM94.8955 16.0267C95.3064 15.2596 95.7942 14.6592 96.3592 14.2256C96.9242 13.7836 97.5919 13.5627 98.3622 13.5627C98.97 13.5627 99.4577 13.6919 99.8258 13.9504L99.6204 16.2643C99.5776 16.4144 99.5134 16.5227 99.4278 16.5895C99.3508 16.6478 99.2438 16.6771 99.1069 16.6771C98.9785 16.6771 98.7859 16.6562 98.5291 16.6145C98.2809 16.5729 98.0369 16.5519 97.7973 16.5519C97.4463 16.5519 97.1338 16.602 96.86 16.702C96.5861 16.8021 96.3378 16.948 96.1153 17.1397C95.9013 17.3232 95.7086 17.5484 95.5374 17.8152C95.3748 18.082 95.2208 18.3864 95.0752 18.7282V26.6328H91.904V13.8004H93.7657C94.091 13.8004 94.3178 13.8587 94.4462 13.9754C94.5746 14.0839 94.6602 14.284 94.703 14.5758L94.8955 16.0267ZM105.874 26.833C104.727 26.833 103.846 26.5203 103.23 25.8949C102.622 25.2612 102.318 24.3899 102.318 23.2808V16.1142H100.97C100.799 16.1142 100.653 16.0599 100.533 15.9516C100.413 15.8432 100.353 15.6807 100.353 15.4638V14.2381L102.472 13.9004L103.14 10.3984C103.182 10.2316 103.264 10.1023 103.384 10.0107C103.503 9.91883 103.658 9.87306 103.846 9.87306H105.489V13.9129H109.007V16.1142H105.489V23.0683C105.489 23.4684 105.588 23.7812 105.785 24.0063C105.99 24.2315 106.268 24.344 106.619 24.344C106.816 24.344 106.979 24.3231 107.107 24.2815C107.244 24.2315 107.36 24.1815 107.454 24.1313C107.556 24.0813 107.646 24.0354 107.723 23.9937C107.8 23.9437 107.877 23.9188 107.954 23.9188C108.049 23.9188 108.126 23.9437 108.186 23.9937C108.246 24.0354 108.31 24.1022 108.378 24.1939L109.328 25.6947C108.866 26.0701 108.335 26.3536 107.736 26.5452C107.137 26.737 106.516 26.833 105.874 26.833ZM119.424 18.7407C119.424 18.3405 119.365 17.9653 119.245 17.615C119.133 17.2565 118.962 16.9438 118.731 16.6771C118.5 16.4102 118.205 16.2018 117.845 16.0516C117.494 15.8932 117.083 15.814 116.613 15.814C115.697 15.814 114.973 16.0684 114.443 16.5769C113.921 17.0856 113.587 17.8068 113.441 18.7407H119.424ZM113.377 20.6043C113.428 21.2631 113.548 21.8342 113.736 22.3178C113.925 22.7931 114.173 23.1891 114.481 23.506C114.789 23.8146 115.153 24.048 115.572 24.2064C116.001 24.3565 116.471 24.4316 116.985 24.4316C117.498 24.4316 117.939 24.3731 118.307 24.2564C118.684 24.1398 119.009 24.0105 119.283 23.8687C119.566 23.727 119.81 23.5977 120.015 23.4809C120.229 23.3642 120.434 23.3059 120.631 23.3059C120.897 23.3059 121.093 23.4018 121.222 23.5936L122.134 24.7192C121.783 25.1194 121.389 25.4571 120.952 25.7323C120.516 25.9991 120.058 26.216 119.578 26.3827C119.108 26.5411 118.624 26.6537 118.128 26.7204C117.64 26.787 117.165 26.8204 116.702 26.8204C115.787 26.8204 114.935 26.6745 114.147 26.3827C113.36 26.0824 112.675 25.6447 112.093 25.0694C111.511 24.4858 111.053 23.7687 110.719 22.9182C110.385 22.0594 110.218 21.067 110.218 19.9415C110.218 19.0659 110.364 18.2446 110.655 17.4774C110.946 16.702 111.361 16.0308 111.9 15.4638C112.448 14.8885 113.112 14.434 113.891 14.1005C114.678 13.767 115.564 13.6003 116.548 13.6003C117.379 13.6003 118.145 13.7294 118.847 13.988C119.548 14.2464 120.152 14.6258 120.657 15.1261C121.162 15.618 121.556 16.2267 121.838 16.9521C122.129 17.6693 122.275 18.4906 122.275 19.4162C122.275 19.883 122.223 20.1999 122.121 20.3667C122.018 20.5251 121.821 20.6043 121.53 20.6043H113.377Z" fill="#155998"/>
<path d="M86.5113 38.3018C86.5909 38.3018 86.6595 38.3327 86.7171 38.3947L87.2747 39.0054C86.8853 39.4657 86.4095 39.8221 85.8474 40.0744C85.2897 40.3267 84.6169 40.4527 83.8291 40.4527C83.1387 40.4527 82.5124 40.3332 81.9502 40.0943C81.3926 39.8553 80.9145 39.5212 80.5162 39.0917C80.1223 38.6625 79.8168 38.149 79.6 37.5515C79.3831 36.954 79.2747 36.2967 79.2747 35.5797C79.2747 34.8627 79.3876 34.2055 79.6133 33.6078C79.8434 33.0104 80.1644 32.497 80.5759 32.0676C80.9876 31.6383 81.4788 31.3042 82.0498 31.0651C82.6252 30.8261 83.2604 30.7066 83.9553 30.7066C84.6325 30.7066 85.2344 30.8173 85.7611 31.0386C86.2877 31.2599 86.7458 31.5542 87.1354 31.9215L86.6705 32.5789C86.6396 32.6276 86.5998 32.6673 86.5511 32.6984C86.5068 32.7293 86.4471 32.7448 86.3718 32.7448C86.2877 32.7448 86.1881 32.7029 86.0731 32.6188C85.9624 32.5345 85.8142 32.4416 85.6283 32.3399C85.4468 32.2336 85.2211 32.1384 84.9511 32.0543C84.6812 31.9702 84.3448 31.9283 83.942 31.9283C83.4683 31.9283 83.0346 32.0123 82.6407 32.1805C82.2468 32.3442 81.906 32.5832 81.6183 32.8975C81.335 33.2074 81.1138 33.5902 80.9544 34.0461C80.7995 34.4976 80.722 35.0087 80.722 35.5797C80.722 36.1596 80.8038 36.6752 80.9677 37.1266C81.1314 37.5781 81.3572 37.9609 81.6449 38.2752C81.9326 38.5894 82.2712 38.8284 82.6606 38.9921C83.0501 39.156 83.4706 39.2378 83.9221 39.2378C84.1965 39.2378 84.442 39.2223 84.6589 39.1914C84.8803 39.156 85.0816 39.105 85.2631 39.0387C85.4491 38.9722 85.6238 38.8882 85.7877 38.7864C85.9514 38.6801 86.113 38.554 86.2723 38.4079C86.3077 38.3769 86.3452 38.3527 86.3851 38.3349C86.425 38.3128 86.467 38.3018 86.5113 38.3018ZM91.7063 33.4951C92.2021 33.4951 92.6491 33.5769 93.0475 33.7406C93.4502 33.9 93.791 34.1324 94.0699 34.4377C94.3531 34.7388 94.5699 35.1039 94.7205 35.5333C94.8709 35.9581 94.9462 36.4362 94.9462 36.9673C94.9462 37.4983 94.8709 37.9787 94.7205 38.4079C94.5699 38.8372 94.3531 39.2024 94.0699 39.5034C93.791 39.8043 93.4502 40.0368 93.0475 40.2005C92.6491 40.3598 92.2021 40.4394 91.7063 40.4394C91.2061 40.4394 90.7547 40.3598 90.3519 40.2005C89.9536 40.0368 89.6129 39.8043 89.3295 39.5034C89.0463 39.2024 88.8272 38.8372 88.6723 38.4079C88.5218 37.9787 88.4466 37.4983 88.4466 36.9673C88.4466 36.4362 88.5218 35.9581 88.6723 35.5333C88.8272 35.1039 89.0463 34.7388 89.3295 34.4377C89.6129 34.1324 89.9536 33.9 90.3519 33.7406C90.7547 33.5769 91.2061 33.4951 91.7063 33.4951ZM91.7063 39.4303C92.3437 39.4303 92.8195 39.2157 93.1337 38.7864C93.4479 38.357 93.6051 37.7528 93.6051 36.9739C93.6051 36.195 93.4479 35.5908 93.1337 35.1614C92.8195 34.7276 92.3437 34.5108 91.7063 34.5108C91.0602 34.5108 90.5777 34.7276 90.259 35.1614C89.9447 35.5908 89.7876 36.195 89.7876 36.9739C89.7876 37.7528 89.9447 38.357 90.259 38.7864C90.5777 39.2157 91.0602 39.4303 91.7063 39.4303ZM98.1373 34.5373C98.2834 34.3824 98.4362 34.2409 98.5954 34.1126C98.7548 33.9841 98.923 33.8757 99.1 33.7872C99.2815 33.6942 99.474 33.6234 99.6776 33.5747C99.8856 33.5217 100.107 33.4951 100.342 33.4951C100.713 33.4951 101.039 33.5571 101.317 33.6809C101.601 33.8049 101.838 33.9798 102.028 34.2055C102.218 34.4267 102.362 34.6945 102.459 35.0087C102.557 35.323 102.605 35.6704 102.605 36.0511V40.3465H101.304V36.0511C101.304 35.5687 101.194 35.1947 100.972 34.9291C100.751 34.6591 100.412 34.524 99.9564 34.524C99.6246 34.524 99.3125 34.6038 99.0204 34.763C98.7327 34.9181 98.4649 35.1305 98.2171 35.4005V40.3465H96.9224V33.6013H97.6993C97.8807 33.6013 97.9935 33.6876 98.0379 33.8601L98.1373 34.5373ZM106.904 40.4527C106.36 40.4527 105.939 40.3001 105.643 39.9946C105.351 39.6893 105.204 39.2533 105.204 38.6868V34.6503H104.421C104.346 34.6503 104.282 34.6282 104.229 34.5838C104.18 34.5351 104.156 34.4643 104.156 34.3714V33.847L105.251 33.6942L105.543 31.6826C105.561 31.6073 105.594 31.5498 105.643 31.51C105.696 31.4657 105.762 31.4436 105.842 31.4436H106.499V33.7075H108.411V34.6503H106.499V38.6005C106.499 38.866 106.563 39.0651 106.692 39.1979C106.824 39.3264 106.993 39.3905 107.196 39.3905C107.316 39.3905 107.417 39.3751 107.502 39.344C107.59 39.3131 107.665 39.2799 107.727 39.2444C107.789 39.2047 107.842 39.1693 107.887 39.1382C107.931 39.1073 107.971 39.0917 108.006 39.0917C108.05 39.0917 108.084 39.1028 108.106 39.1249C108.132 39.1427 108.159 39.1736 108.185 39.2179L108.57 39.842C108.358 40.0368 108.106 40.1872 107.814 40.2934C107.521 40.3997 107.218 40.4527 106.904 40.4527ZM113.76 37.3524C113.233 37.37 112.786 37.4121 112.418 37.4785C112.051 37.5404 111.752 37.6245 111.522 37.7307C111.292 37.8369 111.126 37.9631 111.024 38.1092C110.922 38.2508 110.872 38.4102 110.872 38.5872C110.872 38.7554 110.898 38.9015 110.951 39.0254C111.009 39.1449 111.084 39.2444 111.177 39.3242C111.274 39.3994 111.387 39.4547 111.516 39.4901C111.644 39.5255 111.783 39.5433 111.934 39.5433C112.133 39.5433 112.314 39.5232 112.478 39.4835C112.646 39.4436 112.804 39.3884 112.95 39.3174C113.096 39.2423 113.235 39.1515 113.368 39.0453C113.501 38.9391 113.631 38.8174 113.76 38.6801V37.3524ZM109.962 34.5441C110.338 34.1854 110.745 33.9178 111.184 33.7406C111.626 33.5636 112.111 33.4751 112.638 33.4751C113.023 33.4751 113.363 33.5393 113.66 33.6676C113.957 33.7916 114.207 33.9665 114.41 34.1922C114.614 34.4179 114.766 34.6879 114.868 35.0022C114.975 35.3164 115.028 35.6638 115.028 36.0444V40.3465H114.45C114.322 40.3465 114.224 40.3267 114.158 40.2868C114.091 40.2426 114.038 40.1628 113.999 40.0478L113.859 39.4569C113.687 39.6163 113.516 39.7579 113.348 39.8819C113.18 40.0014 113.003 40.1053 112.817 40.1939C112.635 40.278 112.441 40.3421 112.233 40.3864C112.025 40.4306 111.794 40.4527 111.542 40.4527C111.277 40.4527 111.027 40.4173 110.792 40.3465C110.562 40.2713 110.36 40.1585 110.188 40.0079C110.015 39.8575 109.878 39.6693 109.776 39.4436C109.679 39.218 109.63 38.9546 109.63 38.6537C109.63 38.3881 109.701 38.1336 109.843 37.8901C109.989 37.6422 110.223 37.421 110.546 37.2262C110.874 37.0314 111.299 36.872 111.821 36.7482C112.348 36.6242 112.994 36.5535 113.76 36.5357V36.0444C113.76 35.5354 113.651 35.1548 113.434 34.9025C113.217 34.6503 112.899 34.524 112.478 34.524C112.195 34.524 111.956 34.5594 111.761 34.6304C111.571 34.7012 111.405 34.7808 111.263 34.8694C111.126 34.9535 111.004 35.0308 110.898 35.1016C110.796 35.1726 110.69 35.208 110.579 35.208C110.491 35.208 110.414 35.1836 110.347 35.1349C110.285 35.0862 110.234 35.0286 110.194 34.9623L109.962 34.5441ZM118.586 38.6868C118.799 38.9657 119.029 39.1603 119.277 39.271C119.525 39.3817 119.795 39.4371 120.087 39.4371C120.689 39.4371 121.151 39.2223 121.475 38.793C121.802 38.3637 121.966 37.7152 121.966 36.8477C121.966 36.0467 121.822 35.4603 121.534 35.0883C121.247 34.7122 120.839 34.524 120.313 34.524C119.941 34.524 119.618 34.6081 119.343 34.7763C119.073 34.9445 118.821 35.1836 118.586 35.4934V38.6868ZM118.586 34.5308C118.865 34.221 119.182 33.9708 119.536 33.7805C119.89 33.5902 120.293 33.4951 120.744 33.4951C121.138 33.4951 121.492 33.5725 121.806 33.7273C122.125 33.8779 122.395 34.097 122.616 34.3847C122.838 34.6679 123.008 35.0132 123.128 35.4204C123.247 35.8275 123.307 36.2879 123.307 36.8012C123.307 37.3457 123.238 37.8414 123.101 38.2885C122.968 38.7355 122.776 39.1183 122.523 39.4371C122.276 39.7557 121.972 40.0034 121.614 40.1806C121.255 40.3531 120.853 40.4394 120.406 40.4394C120.189 40.4394 119.99 40.4173 119.808 40.3731C119.627 40.3332 119.458 40.2735 119.304 40.1939C119.153 40.1141 119.014 40.0167 118.885 39.9017C118.757 39.7866 118.635 39.656 118.52 39.51L118.46 40.0744C118.425 40.2559 118.314 40.3465 118.128 40.3465H117.292V30.5472H118.586V34.5308ZM126.633 33.6013V40.3465H125.339V33.6013H126.633ZM126.879 31.5166C126.879 31.6361 126.855 31.7513 126.806 31.8618C126.757 31.9681 126.691 32.0633 126.607 32.1474C126.527 32.227 126.432 32.2912 126.321 32.3399C126.211 32.3841 126.096 32.4062 125.976 32.4062C125.857 32.4062 125.744 32.3841 125.637 32.3399C125.531 32.2912 125.436 32.227 125.352 32.1474C125.272 32.0633 125.208 31.9681 125.159 31.8618C125.115 31.7513 125.093 31.6361 125.093 31.5166C125.093 31.3926 125.115 31.2776 125.159 31.1714C125.208 31.0608 125.272 30.9656 125.352 30.8858C125.436 30.8018 125.531 30.7377 125.637 30.6933C125.744 30.6446 125.857 30.6203 125.976 30.6203C126.096 30.6203 126.211 30.6446 126.321 30.6933C126.432 30.7377 126.527 30.8018 126.607 30.8858C126.691 30.9656 126.757 31.0608 126.806 31.1714C126.855 31.2776 126.879 31.3926 126.879 31.5166ZM130.367 30.5472V40.3465H129.065V30.5472H130.367ZM134.101 33.6013V40.3465H132.807V33.6013H134.101ZM134.347 31.5166C134.347 31.6361 134.322 31.7513 134.274 31.8618C134.225 31.9681 134.159 32.0633 134.075 32.1474C133.995 32.227 133.9 32.2912 133.789 32.3399C133.679 32.3841 133.563 32.4062 133.444 32.4062C133.324 32.4062 133.212 32.3841 133.105 32.3399C132.999 32.2912 132.904 32.227 132.82 32.1474C132.74 32.0633 132.676 31.9681 132.627 31.8618C132.583 31.7513 132.561 31.6361 132.561 31.5166C132.561 31.3926 132.583 31.2776 132.627 31.1714C132.676 31.0608 132.74 30.9656 132.82 30.8858C132.904 30.8018 132.999 30.7377 133.105 30.6933C133.212 30.6446 133.324 30.6203 133.444 30.6203C133.563 30.6203 133.679 30.6446 133.789 30.6933C133.9 30.7377 133.995 30.8018 134.075 30.8858C134.159 30.9656 134.225 31.0608 134.274 31.1714C134.322 31.2776 134.347 31.3926 134.347 31.5166ZM140.855 35.2344C140.643 34.9557 140.413 34.7609 140.165 34.6503C139.921 34.5396 139.647 34.4843 139.342 34.4843C138.749 34.4843 138.288 34.699 137.961 35.1282C137.638 35.5532 137.476 36.175 137.476 36.9938C137.476 37.4232 137.511 37.7905 137.582 38.0959C137.657 38.3969 137.764 38.6447 137.901 38.8395C138.043 39.0297 138.215 39.1715 138.419 39.2644C138.622 39.3528 138.853 39.3972 139.109 39.3972C139.485 39.3972 139.811 39.3131 140.085 39.1449C140.36 38.9767 140.616 38.7398 140.855 38.4345V35.2344ZM142.157 30.5472V40.3465H141.373C141.192 40.3465 141.079 40.2602 141.035 40.0875L140.922 39.3108C140.634 39.6517 140.306 39.9261 139.939 40.1341C139.576 40.3377 139.156 40.4394 138.678 40.4394C138.293 40.4394 137.943 40.3643 137.629 40.2138C137.319 40.0634 137.053 39.8442 136.832 39.5566C136.611 39.2644 136.44 38.9037 136.321 38.4743C136.201 38.045 136.142 37.5515 136.142 36.9938C136.142 36.4937 136.208 36.0289 136.341 35.5996C136.473 35.1703 136.666 34.7986 136.918 34.4843C137.171 34.1701 137.476 33.9244 137.834 33.7474C138.193 33.5659 138.598 33.4751 139.05 33.4751C139.457 33.4751 139.802 33.5415 140.085 33.6743C140.373 33.8071 140.63 33.9951 140.855 34.2386V30.5472H142.157ZM148.119 37.3524C147.592 37.37 147.145 37.4121 146.778 37.4785C146.41 37.5404 146.111 37.6245 145.881 37.7307C145.651 37.8369 145.485 37.9631 145.383 38.1092C145.282 38.2508 145.231 38.4102 145.231 38.5872C145.231 38.7554 145.257 38.9015 145.31 39.0254C145.368 39.1449 145.443 39.2444 145.536 39.3242C145.633 39.3994 145.746 39.4547 145.875 39.4901C146.003 39.5255 146.143 39.5433 146.293 39.5433C146.492 39.5433 146.674 39.5232 146.837 39.4835C147.006 39.4436 147.163 39.3884 147.309 39.3174C147.455 39.2423 147.594 39.1515 147.727 39.0453C147.86 38.9391 147.99 38.8174 148.119 38.6801V37.3524ZM144.321 34.5441C144.697 34.1854 145.105 33.9178 145.543 33.7406C145.985 33.5636 146.47 33.4751 146.997 33.4751C147.382 33.4751 147.723 33.5393 148.019 33.6676C148.316 33.7916 148.566 33.9665 148.769 34.1922C148.973 34.4179 149.126 34.6879 149.227 35.0022C149.334 35.3164 149.387 35.6638 149.387 36.0444V40.3465H148.809C148.681 40.3465 148.583 40.3267 148.517 40.2868C148.451 40.2426 148.398 40.1628 148.358 40.0478L148.218 39.4569C148.046 39.6163 147.875 39.7579 147.707 39.8819C147.539 40.0014 147.362 40.1053 147.176 40.1939C146.994 40.278 146.8 40.3421 146.592 40.3864C146.384 40.4306 146.154 40.4527 145.901 40.4527C145.636 40.4527 145.386 40.4173 145.151 40.3465C144.921 40.2713 144.72 40.1585 144.547 40.0079C144.374 39.8575 144.237 39.6693 144.135 39.4436C144.038 39.218 143.989 38.9546 143.989 38.6537C143.989 38.3881 144.06 38.1336 144.202 37.8901C144.348 37.6422 144.582 37.421 144.905 37.2262C145.233 37.0314 145.658 36.872 146.18 36.7482C146.707 36.6242 147.353 36.5535 148.119 36.5357V36.0444C148.119 35.5354 148.01 35.1548 147.793 34.9025C147.577 34.6503 147.258 34.524 146.837 34.524C146.554 34.524 146.315 34.5594 146.12 34.6304C145.93 34.7012 145.764 34.7808 145.622 34.8694C145.485 34.9535 145.364 35.0308 145.257 35.1016C145.156 35.1726 145.049 35.208 144.939 35.208C144.85 35.208 144.773 35.1836 144.706 35.1349C144.644 35.0862 144.593 35.0286 144.554 34.9623L144.321 34.5441ZM156 35.2344C155.787 34.9557 155.557 34.7609 155.309 34.6503C155.066 34.5396 154.791 34.4843 154.486 34.4843C153.893 34.4843 153.433 34.699 153.105 35.1282C152.782 35.5532 152.62 36.175 152.62 36.9938C152.62 37.4232 152.656 37.7905 152.726 38.0959C152.802 38.3969 152.908 38.6447 153.045 38.8395C153.187 39.0297 153.359 39.1715 153.563 39.2644C153.767 39.3528 153.997 39.3972 154.254 39.3972C154.63 39.3972 154.955 39.3131 155.23 39.1449C155.504 38.9767 155.761 38.7398 156 38.4345V35.2344ZM157.301 30.5472V40.3465H156.517C156.336 40.3465 156.223 40.2602 156.179 40.0875L156.066 39.3108C155.778 39.6517 155.451 39.9261 155.083 40.1341C154.72 40.3377 154.3 40.4394 153.822 40.4394C153.437 40.4394 153.087 40.3643 152.773 40.2138C152.463 40.0634 152.198 39.8442 151.976 39.5566C151.755 39.2644 151.585 38.9037 151.465 38.4743C151.346 38.045 151.286 37.5515 151.286 36.9938C151.286 36.4937 151.352 36.0289 151.485 35.5996C151.618 35.1703 151.81 34.7986 152.063 34.4843C152.315 34.1701 152.62 33.9244 152.979 33.7474C153.337 33.5659 153.742 33.4751 154.194 33.4751C154.601 33.4751 154.946 33.5415 155.23 33.6743C155.517 33.8071 155.774 33.9951 156 34.2386V30.5472H157.301ZM164.106 36.2237C164.106 35.967 164.069 35.7302 163.993 35.5133C163.922 35.2964 163.816 35.1084 163.675 34.949C163.533 34.7896 163.36 34.6658 163.157 34.5772C162.953 34.4887 162.719 34.4444 162.453 34.4444C161.909 34.4444 161.479 34.6016 161.165 34.9158C160.855 35.2301 160.658 35.6661 160.574 36.2237H164.106ZM165.175 39.3839C165.016 39.5697 164.832 39.7313 164.624 39.8686C164.416 40.0014 164.195 40.1098 163.96 40.1939C163.725 40.278 163.482 40.34 163.23 40.3797C162.982 40.4196 162.736 40.4394 162.493 40.4394C162.028 40.4394 161.597 40.3621 161.198 40.2072C160.804 40.0478 160.461 39.8176 160.169 39.5167C159.882 39.2112 159.656 38.835 159.492 38.3881C159.333 37.9366 159.253 37.4187 159.253 36.8346C159.253 36.3653 159.326 35.9294 159.472 35.5266C159.618 35.1194 159.826 34.7653 160.096 34.4643C160.371 34.1633 160.705 33.9266 161.099 33.7539C161.493 33.5814 161.935 33.4951 162.426 33.4951C162.838 33.4951 163.217 33.5636 163.562 33.7009C163.911 33.8337 164.212 34.0283 164.465 34.2851C164.717 34.5418 164.914 34.8583 165.056 35.2344C165.202 35.6107 165.275 36.0399 165.275 36.5224C165.275 36.7216 165.253 36.8567 165.208 36.9275C165.164 36.9938 165.082 37.0271 164.963 37.0271H160.541C160.554 37.4298 160.612 37.7817 160.714 38.0826C160.815 38.3791 160.955 38.6271 161.132 38.8262C161.313 39.0254 161.528 39.1736 161.776 39.271C162.024 39.3684 162.3 39.417 162.606 39.417C162.893 39.417 163.141 39.3839 163.349 39.3174C163.562 39.2511 163.743 39.1803 163.894 39.105C164.049 39.0254 164.177 38.9524 164.279 38.8859C164.385 38.8196 164.478 38.7864 164.558 38.7864C164.664 38.7864 164.746 38.8262 164.803 38.9059L165.175 39.3839Z" fill="#155998"/>
<defs>
<clipPath id="clip0_43_78">
<rect width="47.5493" height="48" fill="white" transform="translate(0.725342 0.5)"/>
</clipPath>
</defs>
</svg>
